<svg width="26" height="25" viewBox="0 0 26 25" fill="none" xmlns="http://www.w3.org/2000/svg">
<path d="M12.9917 24.6304C7.98492 25.2848 3.79556 25.2983 4.16699 19.9201C4.35757 17.1525 7.30359 15.4627 8.71286 13.9279C10.4019 12.0854 10.7192 10.6615 13.1176 10.5402C15.457 10.4199 16.9443 13.3375 18.5893 15.4255C20.3355 17.64 22.1634 18.7152 21.5054 21.9067C20.921 24.7458 18.8662 25.5681 12.9917 24.6304Z" fill="#0D96A0"/>
<path d="M9.12304 0.148968C12.2699 0.51614 14.0124 10.6131 8.21781 9.06601C3.90755 7.91208 5.89031 -0.135593 9.12304 0.148968Z" fill="#0D96A0"/>
<path d="M3.17593 7.084C6.33602 7.26593 8.54338 17.2375 2.68418 16.0411C-1.67552 15.1452 -0.148907 6.6491 3.17593 7.084Z" fill="#0D96A0"/>
<path d="M15.6944 0.133987C12.6385 1.09137 12.2889 11.3843 17.7957 8.76399C21.8964 6.81311 18.7181 -1.11917 15.6944 0.133987Z" fill="#0D96A0"/>
<path d="M23.0102 7.39366C19.8584 7.08344 16.4954 15.4542 22.3199 16.3326C26.7073 16.9927 26.155 7.44895 23.0102 7.39366Z" fill="#0D96A0"/>
</svg>
